<svg id="Ebene_1" data-name="Ebene 1" xmlns="http://www.w3.org/2000/svg" viewBox="0 0 438.23 437.79"><path d="M336.5,419.86H117.76c0,4.84,0,9.56,0,14.28,0,2.25,0,4.5,0,6.75a5.91,5.91,0,0,1-6,5.86H97.21c-4.37,0-7-2.61-7-7.09,0-7.5,0-15,0-22.51,0-1.63-.24-2.58-2.07-3.27a80.12,80.12,0,0,1-31.78-21.82,78.79,78.79,0,0,1-18.7-35.83,83.5,83.5,0,0,1-2-18.86c.1-26.5,0-53,.05-79.51v-2.14H33.29c-5.58,0-11.16-.08-16.75,0s-8.78-3.63-8.37-8.36a67.21,67.21,0,0,0,0-11c-.44-5.52,3-8.73,8.82-8.68,5.33,0,10.66,0,16,0h2.74v-3.1c0-54.5.08-109-.08-163.52a50.54,50.54,0,0,1,9-29C52.84,20,64.41,12.23,78.86,9.82c15.45-2.58,30,.62,42.07,11,7.27,6.2,13.78,13.27,20.61,20,1.67,1.63,3.23,3.36,4.73,4.92,28-15,53.56-12,77.26,9.61,2.79-2.83,5.92-5.69,8.66-8.88,3.23-3.75,8.3-3.9,11.78-.06,3,3.26,6.28,6.2,9.15,9.53,2.6,3,2.24,6.45-.58,9.27q-52.93,53-105.9,105.9c-2.92,2.93-6.82,3.31-9.88.53a133.73,133.73,0,0,1-10.48-10.68c-2.5-2.83-2.1-6.35.6-9.07,3.23-3.25,6.52-6.44,9.88-9.77-10.26-10.23-16.76-22.18-18.59-36.62s1.52-27.69,9-40.11c-7.48-7.46-14.63-15.19-22.42-22.21a24.94,24.94,0,0,0-41.55,19q0,81,0,162v3.61h374c3.35,0,6.48.61,8.2,3.95a7.11,7.11,0,0,1,.8,3c.09,4.25-.23,8.52.11,12.75.38,4.74-3.08,8.41-8.46,8.31-6.24-.11-12.48,0-19.09,0v3c0,26.76-.09,53.51,0,80.26a76.09,76.09,0,0,1-5.75,29.05,79.74,79.74,0,0,1-17.88,27,82.25,82.25,0,0,1-28.74,18.72,2.88,2.88,0,0,0-2.23,3.21c.12,7.25.05,14.5.05,21.76,0,5.66-2.29,8-7.82,8-4.58,0-9.17,0-13.75,0-2.86,0-5.77-2.35-5.88-5.24-.26-6.72-.23-13.46-.31-20.19C336.49,420.9,336.5,420.49,336.5,419.86Zm54.77-164h-328V259c0,25.67,0,51.33.05,77a70.42,70.42,0,0,0,1,11.31c2.11,12.88,8.51,23.46,18.27,31.9,10.6,9.15,23.3,13,37.12,13q108,.1,216,0a55.39,55.39,0,0,0,11.57-1.08,54.44,54.44,0,0,0,31.47-18.93A53.43,53.43,0,0,0,391.26,337q0-39,0-78ZM156.05,122.09l47.43-47.37c-13-14.45-35.6-14-48.7-.25C141.44,88.45,142.39,110,156.05,122.09Z" transform="translate(-8.14 -8.97)"/></svg>