<svg id="Ebene_1" data-name="Ebene 1" xmlns="http://www.w3.org/2000/svg" viewBox="0 0 410.15 437.91"><path d="M138.91,289.13c-4.33-2.35-8.68-4.48-12.79-7Q91.6,261,81.55,221.82c-2.56-10-3.13-20.16-3-30.44a200.79,200.79,0,0,1,2-26.39c.82-5.86,1.26-11.78,2.07-17.64.84-6.08,1.92-12.14,2.9-18.2,1.19-7.43,2.26-14.89,3.61-22.29,1.11-6.09,2-12.34,4-18.15,3.92-11.3,12.65-18,23.84-21,14.38-3.91,28.23-2.55,40.81,6.22.54.38,1,.86,1.51,1.29,15.28-12.64,41.64-12.72,57.09-.05a43,43,0,0,1,26-9.32c8.67-.3,16.92,1,24.57,5.18a33.37,33.37,0,0,1,17.72,25c1.35,8.23,3,16.42,4.36,24.66,1.14,6.87,2.11,13.76,3.11,20.66s2.06,13.94,2.93,20.93c.66,5.3,1.15,10.64,1.55,16,.44,5.77,1.09,11.58,1,17.35-.49,21.58-6,41.72-18.57,59.51a94.41,94.41,0,0,1-29.54,27.13c-3.61,2.12-7.42,3.91-11.16,5.8-1.12.57-1.62,1-1.34,2.58a81.76,81.76,0,0,1,.66,10.16c.2,4.72.27,9.46.53,14.18.43,7.68,1,15.35,1.46,23,.2,3.06.39,6.12.51,9.18.2,5,.29,10,.52,14.92q.71,14.64,1.5,29.28c.31,5.7.68,11.4,1,17.1.52,9.68,1,19.36,1.51,29q.47,8.82,1,17.61c.31,5.29,1,10.58.91,15.86-.31,12.33-5.81,21.82-16.45,28.29a29.25,29.25,0,0,1-15.92,4.26q-27-.22-54,0c-7.33,0-13.51-2.78-18.93-7.25-9.2-7.59-12.76-17.69-12.12-29.42.31-5.71.69-11.41,1-17.11.52-9.76,1-19.52,1.51-29.27.31-5.87.67-11.74,1-17.61q.77-14,1.51-28,.49-9.06,1-18.1.77-14,1.51-28c.33-6.11.64-12.23,1-18.35C138,303.21,138.47,296.12,138.91,289.13Zm4.67-136.7q0-25.64,0-51.26a5.86,5.86,0,0,0-3.43-5.78c-5.81-2.88-11.76-2.74-17.65-.43a6.05,6.05,0,0,0-4,5.16c-.8,6-2.07,11.93-3.08,17.9-1.48,8.72-3,17.44-4.3,26.19-1,6.74-1.74,13.52-2.56,20.29-.85,7.1-2.06,14.2-2.37,21.33-.4,9.15-.21,18.27,1.8,27.37a74.17,74.17,0,0,0,57.13,57.16c1.5.34,2.08.92,2,2.46-.24,4.64-.3,9.28-.55,13.92-.45,8.27-1,16.53-1.48,24.8-.32,5.36-.68,10.73-1,16.1-.53,9.84-1,19.68-1.53,29.53-.32,6.12-.66,12.24-1,18.36q-.76,14.52-1.52,29l-1,18.86c-.5,9.51-1,19-1.49,28.53-.25,5.23-.35,10.46-.52,15.68a6.36,6.36,0,0,1-.11,1.24c-.87,4.21,1.43,7.06,5.73,7.06h50.25c3.48,0,5.22-1.25,5.91-4.62.24-1.14-.19-2.42-.26-3.63q-.51-9.18-1-18.36-.76-14.76-1.51-29.53c-.31-6-.67-12.07-1-18.11q-.78-14.76-1.52-29.53c-.32-6.12-.67-12.24-1-18.36-.51-9.76-1-19.53-1.49-29.3-.25-5.3-.33-10.62-.53-15.92-.12-3.31-.32-6.62-.51-9.93-.48-8.51-1-17-1.49-25.52-.11-1.67.46-2.26,2.16-2.82,6.42-2.11,13-4,19-7a68.92,68.92,0,0,0,30.55-30c8-15,10.64-31.15,8.8-48-1-9.4-1.93-18.82-3-28.22-.89-7.49-1.87-15-3.06-22.42-1.86-11.64-3.89-23.26-6-34.85a6,6,0,0,0-2.31-3.53c-5.65-3.76-11.74-3.51-17.91-1.41C233.41,96,232,98.27,232,102c.09,33.84,0,67.68.07,101.51a6.34,6.34,0,0,1-2.89,5.6c-5.49,3.88-14.93,3.94-20.17-.21a7.28,7.28,0,0,1-2.36-4.36c-.6-4.42-.8-8.89-1.08-13.34-.53-8.18-1-16.35-1.52-24.52-.33-5.45-.67-10.9-1-16.36-.51-8.59-1-17.18-1.5-25.77-.38-7.28-.67-14.57-1-21.86-.24-5.11-1.69-6.85-6.44-8.33a23.07,23.07,0,0,0-11.69-.4c-4.24.87-7.07,3.36-7.35,6.57s-.34,6.29-.53,9.43c-.31,5.11-.68,10.23-1,15.35-.52,8.92-1,17.84-1.52,26.76-.3,5.12-.69,10.24-1,15.36-.53,9.43-1,18.85-1.52,28.28a61.14,61.14,0,0,1-.62,8.9,7.89,7.89,0,0,1-2.88,4.54c-5.73,3.92-12,3.66-18.15,1.14-2.88-1.18-4.41-3.6-4.39-7.05C143.63,186.27,143.58,169.35,143.58,152.43Z" transform="translate(-78.5 -65.59)"/><path d="M488.61,284.91q0,94.38,0,188.75c0,6.72-2.88,12.4-7,17.5a33.69,33.69,0,0,1-20.4,12,13.59,13.59,0,0,1-2.7.27q-27.12,0-54.24,0c-7.94,0-14.71-3.15-20.6-8.22s-9.72-11.26-10.81-18.87c-.6-4.12-.27-8.39-.14-12.58.08-2.54.67-5,.87-7.59.55-7,.93-14,1.54-21,.73-8.29,1.68-16.55,2.44-24.84.45-4.93.63-9.89,1.06-14.83.59-6.8,1.33-13.6,1.94-20.4.41-4.52.65-9.06,1.05-13.58.61-6.89,1.32-13.78,1.93-20.67.27-3.13-.08-6.39.67-9.38,1-4-1.35-5.44-3.77-7.71-8.09-7.61-16.1-15.34-23.63-23.5-10-10.86-17.35-23.56-23.09-37.13a128.21,128.21,0,0,1-7.71-27,119.09,119.09,0,0,1-1.28-29.49A139.36,139.36,0,0,1,335,163.56a167,167,0,0,1,23.9-41.13A175.53,175.53,0,0,1,392.08,90C404.86,80.52,418.6,73.09,434,68.67c8.51-2.45,17.23-3.77,25.91-2.62A32.77,32.77,0,0,1,484,81.62a28.55,28.55,0,0,1,4.66,15.54Q488.54,191,488.61,284.91Zm-27.5,0v-185c0-4.45-2.13-6.61-6.7-6.56-8.87.1-17.12,2.72-25.06,6.44-17.81,8.33-32.5,20.61-45.1,35.6-10.2,12.13-18.58,25.3-24.17,40.17-6.53,17.35-9.66,35.12-7,53.7a97.26,97.26,0,0,0,8.87,29.19,107.31,107.31,0,0,0,16.56,24.41,208.55,208.55,0,0,0,16.59,16.52c5.65,5.07,11.81,9.57,17.71,14.36a2.23,2.23,0,0,1,.78,1.55c-.27,4-.61,8.06-1,12.08-.63,6.72-1.37,13.44-1.95,20.16-.43,4.94-.61,9.9-1.06,14.83-.75,8.28-1.67,16.55-2.45,24.83-.72,7.8-1.33,15.61-2,23.42-.65,7.55-1.38,15.1-2,22.66-.71,8.89-1.32,17.78-2,26.66-.21,2.62-.58,5.23-.95,7.84-.76,5.36,1.7,8.23,7.05,8.19,15.74-.11,31.49,0,47.24,0,4.58,0,6.69-2.05,6.69-6.51Z" transform="translate(-78.5 -65.59)"/></svg>