<svg id="Ebene_1" data-name="Ebene 1" xmlns="http://www.w3.org/2000/svg" viewBox="0 0 547.56 328.7"><defs><style>.cls-1{fill:#fff;}</style></defs><path class="cls-1" d="M420.12,420.22c.28,1.86.43,3.5.77,5.1,2.58,12.15,14.22,22.2,27,21.92,18.32-.4,36.66-.09,55-.12a28.58,28.58,0,0,0,4.41-.47c12.66-1.95,22.51-13.59,22.55-27q.12-32.62,0-65.25a5.72,5.72,0,0,1,1.95-4.49c3.94-3.89,8.09-7.66,11.47-12,12.72-16.4,16.25-35.11,12.34-55.18-3-15.42-11-28.08-23.07-38.25a66.39,66.39,0,0,0-28.11-14.27c-1.75-.41-2.07-1.11-2.06-2.66.05-9.58.19-19.17-.05-28.75a81.76,81.76,0,0,0-1.6-14.47C496.52,164.24,486.15,148,470,135.43a77.74,77.74,0,0,0-48.37-16.77q-137.5-.27-275,0a93.52,93.52,0,0,0-17.93,2c-14.28,2.84-26.71,9.64-37.41,19.38A80.18,80.18,0,0,0,70,170.72a77.45,77.45,0,0,0-5.68,27.37c-.07,9.84,0,19.67,0,29.51,0,1.13.21,2.13-1.53,2.55-17,4.07-30.59,13.11-40.71,27.42-10.85,15.35-14.53,32.52-11.55,50.74a65.88,65.88,0,0,0,24.62,41.9,4.39,4.39,0,0,1,1.71,3.85q-.08,31.5,0,63c0,2.23.25,4.45.47,6.67,1.31,12.89,13.71,23.58,26.45,23.46,18.75-.19,37.5,0,56.25-.08,8.51,0,15.14-4.05,20.38-10.54a28.23,28.23,0,0,0,6.1-16.35Z" transform="translate(-9.55 -118.55)"/><path d="M420.12,420.22H146.52a28.23,28.23,0,0,1-6.1,16.35c-5.24,6.49-11.87,10.5-20.38,10.54-18.75.09-37.5-.11-56.25.08-12.74.12-25.14-10.57-26.45-23.46-.22-2.22-.47-4.44-.47-6.67q-.06-31.5,0-63a4.39,4.39,0,0,0-1.71-3.85,65.88,65.88,0,0,1-24.62-41.9c-3-18.22.7-35.39,11.55-50.74,10.12-14.31,23.75-23.35,40.71-27.42,1.74-.42,1.53-1.42,1.53-2.55,0-9.84,0-19.67,0-29.51A77.45,77.45,0,0,1,70,170.72,80.18,80.18,0,0,1,91.24,140c10.7-9.74,23.13-16.54,37.41-19.38a93.52,93.52,0,0,1,17.93-2q137.51-.18,275,0A77.74,77.74,0,0,1,470,135.43c16.2,12.52,26.57,28.81,30.76,48.87a81.76,81.76,0,0,1,1.6,14.47c.24,9.58.1,19.17.05,28.75,0,1.55.31,2.25,2.06,2.66a66.39,66.39,0,0,1,28.11,14.27c12.05,10.17,20.06,22.83,23.07,38.25,3.91,20.07.38,38.78-12.34,55.18-3.38,4.35-7.53,8.12-11.47,12a5.72,5.72,0,0,0-1.95,4.49q.1,32.63,0,65.25c0,13.43-9.89,25.07-22.55,27a28.58,28.58,0,0,1-4.41.47c-18.34,0-36.68-.28-55,.12-12.79.28-24.43-9.77-27-21.92C420.55,423.72,420.4,422.08,420.12,420.22Zm54.76-192.11c0-7.47.06-14.55,0-21.63-.06-4.31.09-8.7-.6-12.93-2.41-14.94-9.32-27.36-21.64-36.44-9-6.61-19-10.4-30.28-10.51-11-.1-22,0-33,0H280.88q-67.11,0-134.22,0a53.59,53.59,0,0,0-10.14.68,54.56,54.56,0,0,0-30.73,17.55c-8.94,10-13.32,21.69-13.87,34.85-.36,8.65-.07,17.33-.07,26v2.94c5.85,0,11.34-.16,16.82,0a37.3,37.3,0,0,1,23.17,9.23c10.37,8.78,15,20.18,15,33.63v11H420.37c0-5.86-.4-11.61.08-17.28,1.14-13.72,8.43-23.77,19.8-31.05,6.89-4.42,14.64-5.79,22.66-6C466.81,228,470.71,228.11,474.88,228.11Zm-55.1,83.13H147.06V392H419.78ZM502,419.54v-2.43q0-39.24,0-78.48a3.5,3.5,0,0,1,1.86-3.3c5.14-3.69,10.47-7.24,15-11.56,10-9.48,12.11-21.61,9.82-34.61a40.63,40.63,0,0,0-37.95-33c-10.06-.37-20.16-.17-30.24-.06-7.61.08-12.65,7.58-12.64,12.68q.17,74,.07,148v2.74Zm-383.12,0v-2.79q0-73.89,0-147.77c0-5.88-5.09-12.57-12.16-12.73-11.46-.26-23-.19-34.4.5-9.35.57-17.13,5.28-23.56,12a39.36,39.36,0,0,0-11,22.5c-1.27,9.47-.07,18.43,5.1,26.58,4.7,7.39,11.55,12.5,19,16.79a5.32,5.32,0,0,1,3,5.33c-.09,25.75-.06,51.5,0,77.25,0,.79.07,1.59.11,2.38Z" transform="translate(-9.55 -118.55)"/><path class="cls-1" d="M474.88,228.11c-4.17,0-8.07-.08-12,0-8,.21-15.77,1.58-22.66,6-11.37,7.28-18.66,17.33-19.8,31.05-.48,5.67-.08,11.42-.08,17.28H146.85v-11c0-13.45-4.64-24.85-15-33.63a37.3,37.3,0,0,0-23.17-9.23c-5.48-.19-11,0-16.82,0v-2.94c0-8.66-.29-17.34.07-26,.55-13.16,4.93-24.88,13.87-34.85a54.56,54.56,0,0,1,30.73-17.55,53.59,53.59,0,0,1,10.14-.68q67.11,0,134.22,0H389.35c11,0,22-.08,33,0,11.24.11,21.3,3.9,30.28,10.51,12.32,9.08,19.23,21.5,21.64,36.44.69,4.23.54,8.62.6,12.93C474.94,213.56,474.88,220.64,474.88,228.11Z" transform="translate(-9.55 -118.55)"/><path class="cls-1" d="M419.78,311.24V392H147.06V311.24Z" transform="translate(-9.55 -118.55)"/><path class="cls-1" d="M502,419.54H447.88V416.8q0-74-.07-148c0-5.1,5-12.6,12.64-12.68,10.08-.11,20.18-.31,30.24.06a40.63,40.63,0,0,1,37.95,33c2.29,13,.19,25.13-9.82,34.61-4.56,4.32-9.89,7.87-15,11.56a3.5,3.5,0,0,0-1.86,3.3q.09,39.24,0,78.48Z" transform="translate(-9.55 -118.55)"/><path class="cls-1" d="M118.85,419.51H65c0-.79-.11-1.59-.11-2.38,0-25.75,0-51.5,0-77.25a5.32,5.32,0,0,0-3-5.33c-7.46-4.29-14.31-9.4-19-16.79-5.17-8.15-6.37-17.11-5.1-26.58a39.36,39.36,0,0,1,11-22.5c6.43-6.68,14.21-11.39,23.56-12,11.43-.69,22.94-.76,34.4-.5,7.07.16,12.17,6.85,12.16,12.73q-.07,73.89,0,147.77Z" transform="translate(-9.55 -118.55)"/></svg>