<svg id="Ebene_1" data-name="Ebene 1" xmlns="http://www.w3.org/2000/svg" viewBox="0 0 438.06 383.46"><defs><style>.cls-1{fill:#fff;}</style></defs><path class="cls-1" d="M368.84,147.46c-4.7-4-8.75-7.65-13.09-11-15.33-11.78-32.89-17.71-52-19a90.08,90.08,0,0,0-23.41,1.84,94.4,94.4,0,0,0-36.74,15.9c-1.77,1.26-2.47,1-3.83-.3-8.88-8.65-17.36-17.79-26.89-25.66C197,96.19,178.17,90.54,157.78,90a93,93,0,0,0-11.86.94,83.61,83.61,0,0,0-26.83,7.49,90.54,90.54,0,0,0-42.51,40.12c-6.26,11.6-10.39,24.08-10.43,37.14C65.87,272.59,66,369.49,66,466.4a6.78,6.78,0,0,0,7,7c4.33,0,8.66,0,13,0,4.94,0,7.48-2.54,7.48-7.44q0-140.74.09-281.48a82.23,82.23,0,0,1,2-18.37,59.85,59.85,0,0,1,23.19-35.53c13.72-10.13,29.25-14.39,46.4-12.23a56.39,56.39,0,0,1,23.34,7.88,99.73,99.73,0,0,1,14.16,10.8c6.67,6.11,12.89,12.71,19.37,19.17-14.66,19.54-21,41.39-19,65.36S215.28,266.06,233,283.2c-1.76,1.56-3.32,2.81-4.74,4.22-3.24,3.19-3.24,7.25-.06,10.49,2.75,2.79,5.73,5.38,8.26,8.35,3.35,3.94,8.42,3.64,12,.08q54.21-54.49,108.66-108.76,17.58-17.6,35.16-35.19c2.87-2.87,3.19-7,.6-9.79-3.32-3.5-6.74-6.93-10.26-10.24a6.51,6.51,0,0,0-9.5.23C371.55,144.19,370.15,146,368.84,147.46ZM340,295.59c-.27-7.7-5.81-14-13.93-14a13.89,13.89,0,1,0,0,27.77C334.12,309.29,339.54,303.22,340,295.59Zm81.5-.09c.45,7.57,5.76,13.75,13.91,13.82a13.89,13.89,0,1,0,.15-27.77C427.65,281.47,421.88,287.6,421.5,295.5Zm13.84-41.07c8.22.59,14.24-7.26,14.12-13.76a14.1,14.1,0,0,0-14-13.77c-8.24-.05-13.84,7.16-14,13.7S427.59,255,435.34,254.43ZM340,404.92c-.29-7.66-5.89-13.92-14-13.89a13.59,13.59,0,0,0-13.87,13.74,13.74,13.74,0,0,0,14,14C334.12,418.77,339.64,412.54,340,404.92Zm54.5-109.3c.59-7.33-5.87-14.11-13.75-14.08a13.92,13.92,0,0,0-.07,27.83C388.52,309.44,395.06,302.36,394.5,295.62Zm-68.59,68.31A14.09,14.09,0,0,0,340,350.09c0-5.6-5.19-13.69-13.81-13.73a14.14,14.14,0,0,0-14.15,13.78C312.06,356.82,317.59,364.05,325.91,363.93ZM422,268.21c.5-6.32-5.92-13.89-13.75-13.91a13.82,13.82,0,1,0-.19,27.64C416.31,282.08,422.21,274.49,422,268.21Zm-82.5,0a14,14,0,0,0,14,13.68,13.74,13.74,0,0,0,13.83-13.8,14,14,0,0,0-13.88-13.81C345.57,254.2,339.06,261.81,339.5,268.23Zm14.73,68.26c8.88-.31,13.67-8.49,13.14-14.2-.8-8.68-7.3-13.83-15.14-13.31a14.05,14.05,0,0,0-12.67,15.44A13.74,13.74,0,0,0,354.23,336.49Zm-14.73,41c0,7.41,6.43,14,13.85,13.86,8.5-.16,14.08-6.54,14-13.95a13.58,13.58,0,0,0-13.95-13.75A13.79,13.79,0,0,0,339.5,377.53Zm68.36-40.91a13.83,13.83,0,1,0-13.66-14A13.84,13.84,0,0,0,407.86,336.62Zm68.73-68.47c.58-7-6.41-13.78-13.4-13.86-8.09-.1-13.92,7-14.27,13.12-.41,7.21,6.11,14.45,13.68,14.56S476.93,275.4,476.59,268.15Zm-82.09,82.1c.52-7.13-6.37-13.73-13.35-13.92-7.83-.22-14,6.94-14.26,13.38-.29,7.38,6.69,14.36,13.86,14.33C388.08,364,395,357.19,394.5,350.25ZM504,240.75a14,14,0,0,0-13.48-13.86c-7.81-.24-13.68,6.65-14.11,12.93-.58,8.3,6.76,14.4,13.13,14.72C497.76,255,504.57,247.24,504,240.75Zm-109.5.11c.72-6.43-5.84-14.08-13.53-14a14.19,14.19,0,0,0-14,13.29c-.36,7.59,6.49,14.18,13.47,14.35C388.36,254.74,395,247.48,394.5,240.86Z" transform="translate(-65.97 -89.98)"/><path d="M368.84,147.46c1.31-1.5,2.71-3.27,4.28-4.87a6.51,6.51,0,0,1,9.5-.23c3.52,3.31,6.94,6.74,10.26,10.24,2.59,2.74,2.27,6.92-.6,9.79Q374.72,180,357.12,197.58q-54.36,54.35-108.66,108.76c-3.55,3.56-8.62,3.86-12-.08-2.53-3-5.51-5.56-8.26-8.35-3.18-3.24-3.18-7.3.06-10.49,1.42-1.41,3-2.66,4.74-4.22-17.75-17.14-27.92-37.57-29.94-61.61s4.34-45.82,19-65.36c-6.48-6.46-12.7-13.06-19.37-19.17a99.73,99.73,0,0,0-14.16-10.8,56.39,56.39,0,0,0-23.34-7.88c-17.15-2.16-32.68,2.1-46.4,12.23a59.85,59.85,0,0,0-23.19,35.53,82.23,82.23,0,0,0-2,18.37Q93.39,325.26,93.5,466c0,4.9-2.54,7.43-7.48,7.44-4.33,0-8.66,0-13,0a6.78,6.78,0,0,1-7-7c0-96.91-.14-193.81.14-290.72,0-13.06,4.17-25.54,10.43-37.14a90.54,90.54,0,0,1,42.51-40.12,83.61,83.61,0,0,1,26.83-7.49A93,93,0,0,1,157.78,90c20.39.55,39.25,6.2,55.08,19.29,9.53,7.87,18,17,26.89,25.66,1.36,1.33,2.06,1.56,3.83.3a94.4,94.4,0,0,1,36.74-15.9,90.08,90.08,0,0,1,23.41-1.84c19.13,1.27,36.69,7.2,52,19C360.09,139.81,364.14,143.5,368.84,147.46ZM348.44,167C328.79,147.51,305.5,140.1,279,148.25c-28.74,8.84-45.09,29.58-48.27,59.31-2.33,21.73,5.91,40.31,21.56,55.47Z" transform="translate(-65.97 -89.98)"/><path d="M340,295.59c-.46,7.63-5.88,13.7-13.94,13.73a13.89,13.89,0,1,1,0-27.77C334.19,281.58,339.73,287.89,340,295.59Z" transform="translate(-65.97 -89.98)"/><path d="M421.5,295.5c.38-7.9,6.15-14,14.06-13.95a13.89,13.89,0,1,1-.15,27.77C427.26,309.25,422,303.07,421.5,295.5Z" transform="translate(-65.97 -89.98)"/><path d="M435.34,254.43c-7.75.54-14-7.25-13.83-13.83s5.73-13.75,14-13.7a14.1,14.1,0,0,1,14,13.77C449.58,247.17,443.56,255,435.34,254.43Z" transform="translate(-65.97 -89.98)"/><path d="M340,404.92c-.36,7.62-5.88,13.85-13.86,13.87a13.74,13.74,0,0,1-14-14A13.59,13.59,0,0,1,326,391C334.11,391,339.71,397.26,340,404.92Z" transform="translate(-65.97 -89.98)"/><path d="M394.5,295.62c.56,6.74-6,13.82-13.82,13.75a13.92,13.92,0,0,1,.07-27.83C388.63,281.51,395.09,288.29,394.5,295.62Z" transform="translate(-65.97 -89.98)"/><path d="M325.91,363.93c-8.32.12-13.85-7.11-13.85-13.79a14.14,14.14,0,0,1,14.15-13.78c8.62,0,13.84,8.13,13.81,13.73A14.09,14.09,0,0,1,325.91,363.93Z" transform="translate(-65.97 -89.98)"/><path d="M422,268.21c.21,6.28-5.69,13.87-13.94,13.73a13.82,13.82,0,1,1,.19-27.64C416.08,254.32,422.5,261.89,422,268.21Z" transform="translate(-65.97 -89.98)"/><path d="M339.5,268.23c-.44-6.42,6.07-14,14-13.93a14,14,0,0,1,13.88,13.81,13.74,13.74,0,0,1-13.83,13.8A14,14,0,0,1,339.5,268.23Z" transform="translate(-65.97 -89.98)"/><path d="M354.23,336.49a13.74,13.74,0,0,1-14.67-12.07A14.05,14.05,0,0,1,352.23,309c7.84-.52,14.34,4.63,15.14,13.31C367.9,328,363.11,336.18,354.23,336.49Z" transform="translate(-65.97 -89.98)"/><path d="M339.5,377.53a13.79,13.79,0,0,1,13.88-13.84,13.58,13.58,0,0,1,13.95,13.75c.1,7.41-5.48,13.79-14,13.95C345.93,391.53,339.5,384.94,339.5,377.53Z" transform="translate(-65.97 -89.98)"/><path d="M407.86,336.62a13.83,13.83,0,1,1,.85-27.65,13.83,13.83,0,0,1-.85,27.65Z" transform="translate(-65.97 -89.98)"/><path d="M476.59,268.15c.34,7.25-6.41,13.94-14,13.82s-14.09-7.35-13.68-14.56c.35-6.11,6.18-13.22,14.27-13.12C470.18,254.37,477.17,261.11,476.59,268.15Z" transform="translate(-65.97 -89.98)"/><path d="M394.5,350.25c.48,6.94-6.42,13.77-13.75,13.79-7.17,0-14.15-7-13.86-14.33.25-6.44,6.43-13.6,14.26-13.38C388.13,336.52,395,343.12,394.5,350.25Z" transform="translate(-65.97 -89.98)"/><path d="M504,240.75c.57,6.49-6.24,14.21-14.46,13.79-6.37-.32-13.71-6.42-13.13-14.72.43-6.28,6.3-13.17,14.11-12.93A14,14,0,0,1,504,240.75Z" transform="translate(-65.97 -89.98)"/><path d="M394.5,240.86c.48,6.62-6.14,13.88-14.1,13.68-7-.17-13.83-6.76-13.47-14.35a14.19,14.19,0,0,1,14-13.29C388.66,226.78,395.22,234.43,394.5,240.86Z" transform="translate(-65.97 -89.98)"/></svg>