<svg id="Ebene_1" data-name="Ebene 1" xmlns="http://www.w3.org/2000/svg" viewBox="0 0 547.14 328.64"><path d="M529.58,392.62H37.53v2.73c0,14.59-.11,29.17.08,43.76,0,4-3.26,8.39-8.06,8a102.05,102.05,0,0,0-12.49,0A7,7,0,0,1,10,440q.12-157.12,0-314.27A7,7,0,0,1,17,118.5H29.29c5.39,0,8.24,2.84,8.24,8.2q0,90.25,0,180.51v57.64h191V215.43c0-8.72,6.17-14.91,14.94-14.91,72.92,0,145.83-.15,218.75.08a92.25,92.25,0,0,1,58,20.32,95.2,95.2,0,0,1,33,48.08,82.4,82.4,0,0,1,3.82,24.28q-.08,73.26,0,146.51,0,7.24-7.32,7.25H537a7,7,0,0,1-7.42-7.43q0-22.26,0-44.51ZM256.65,228.42V364.83H529.58v-3.14q0-31.62,0-63.25c0-3.3-.25-6.61-.48-9.92a59.35,59.35,0,0,0-6.22-21.85,68.56,68.56,0,0,0-20.37-24.54,64.32,64.32,0,0,0-38.79-13.61q-8.11-.15-16.24-.17-13.35-.07-26.7-.06-14,0-28,.05c-9.14,0-18.28.08-27.43.1-8.91,0-17.82,0-26.73,0l-27.93,0H284C274.92,228.43,265.87,228.42,256.65,228.42Z" transform="translate(-9.97 -118.5)"/><path d="M133,337.57c-36.55.81-70.61-30.84-68.46-72.09a68.48,68.48,0,0,1,68.87-64.88c37.11,0,70.14,30.87,68.08,72.66C199.86,307.16,170.69,338.08,133,337.57Zm.1-109.06a40.23,40.23,0,0,0-41,40.67c.11,23,17.69,40,39.23,40.81A40.58,40.58,0,0,0,174,269.32C174.11,246.42,155.48,228,133.14,228.51Z" transform="translate(-9.97 -118.5)"/></svg>